<svg width="46" height="46" viewBox="0 0 46 46" fill="none" xmlns="http://www.w3.org/2000/svg">
<path d="M40.4225 13.3784C38.7933 11.5767 36.0717 10.6759 32.1233 10.6759H31.6633V10.5992C31.6633 7.37925 31.6633 3.39258 24.4567 3.39258H21.5433C14.3367 3.39258 14.3367 7.39841 14.3367 10.5992V10.6951H13.8767C9.90916 10.6951 7.20666 11.5959 5.57749 13.3976C3.67999 15.5059 3.73749 18.3426 3.92916 20.2784L3.94832 20.4126L4.11745 22.1884C4.13171 22.3381 4.21201 22.4731 4.33765 22.5559C4.74421 22.8237 5.68036 23.4342 6.20999 23.7284C6.47832 23.9009 6.76582 24.0542 7.05332 24.2076C10.3308 26.0092 13.9342 27.2167 17.595 27.8109C17.7675 29.6126 18.5533 31.7209 22.7508 31.7209C26.9483 31.7209 27.7725 29.6317 27.9067 27.7726C31.8167 27.1401 35.5925 25.7792 39.0042 23.7859C39.1192 23.7284 39.1958 23.6709 39.2917 23.6134C40.1096 23.1511 40.9606 22.5733 41.7221 22.0177C41.8347 21.9356 41.9071 21.8097 41.9225 21.6712L41.975 21.1984L42.0708 20.2976C42.09 20.1826 42.09 20.0867 42.1092 19.9526C42.2625 18.0167 42.2242 15.3717 40.4225 13.3784ZM25.0892 26.5076C25.0892 28.5392 25.0892 28.8459 22.7317 28.8459C20.3742 28.8459 20.3742 28.4817 20.3742 26.5267V24.1117H25.0892V26.5076ZM17.0775 10.6759V10.5992C17.0775 7.34091 17.0775 6.13341 21.5433 6.13341H24.4567C28.9225 6.13341 28.9225 7.36008 28.9225 10.5992V10.6951H17.0775V10.6759Z" fill="#0E0140"/>
<path d="M40.7509 25.9671C41.1034 25.7965 41.5075 26.0774 41.4721 26.4673L40.7099 34.8642C40.3074 38.6975 38.7357 42.6075 30.3024 42.6075H15.6974C7.26403 42.6075 5.69236 38.6975 5.28986 34.8834L4.56415 26.9005C4.52911 26.5151 4.92378 26.2344 5.27541 26.3961C7.20312 27.2829 12.1896 29.5149 14.9545 30.1845C15.1196 30.2245 15.2531 30.3417 15.3193 30.4981C16.433 33.1334 18.9974 34.5384 22.7507 34.5384C26.4668 34.5384 29.0661 33.0794 30.182 30.4408C30.2482 30.2843 30.3815 30.1672 30.5467 30.1271C33.4754 29.4174 38.7473 26.9369 40.7509 25.9671Z" fill="#0E0140"/>
</svg>
