<svg width="24" height="24" viewBox="0 0 24 24" fill="none" xmlns="http://www.w3.org/2000/svg">
<path d="M12 18.2C14.2091 18.2 16 16.4092 16 14.2C16 11.9909 14.2091 10.2 12 10.2C9.79086 10.2 8 11.9909 8 14.2C8 16.4092 9.79086 18.2 12 18.2Z" stroke="#0E0140" stroke-width="2" stroke-miterlimit="10" stroke-linecap="round" stroke-linejoin="round"/>
<path d="M10.4399 14.3L11.0899 14.95C11.2799 15.14 11.5899 15.14 11.7799 14.96L13.5599 13.32" stroke="#0E0140" stroke-width="2" stroke-linecap="round" stroke-linejoin="round"/>
<path d="M7.99983 22H15.9998C20.0198 22 20.7398 20.39 20.9498 18.43L21.6998 10.43C21.9698 7.99 21.2698 6 16.9998 6H6.99983C2.72983 6 2.02983 7.99 2.29983 10.43L3.04983 18.43C3.25983 20.39 3.97983 22 7.99983 22Z" stroke="#0E0140" stroke-width="2" stroke-miterlimit="10" stroke-linecap="round" stroke-linejoin="round"/>
<path d="M8 6V5.2C8 3.43 8 2 11.2 2H12.8C16 2 16 3.43 16 5.2V6" stroke="#0E0140" stroke-width="2" stroke-miterlimit="10" stroke-linecap="round" stroke-linejoin="round"/>
<path d="M21.6498 11C19.9198 12.26 17.9998 13.14 16.0098 13.64" stroke="#0E0140" stroke-width="2" stroke-miterlimit="10" stroke-linecap="round" stroke-linejoin="round"/>
<path d="M2.62012 11.27C4.29012 12.41 6.11012 13.22 8.00012 13.68" stroke="#0E0140" stroke-width="2" stroke-miterlimit="10" stroke-linecap="round" stroke-linejoin="round"/>
</svg>
