<svg width="46" height="46" viewBox="0 0 46 46" fill="none" xmlns="http://www.w3.org/2000/svg">
<path d="M21.6966 5.75H9.75574C5.94157 5.75 4.0249 7.68583 4.0249 11.5383V42.1667H14.3749V34.9792C14.3749 34.1933 15.0266 33.5417 15.8124 33.5417C16.5982 33.5417 17.2499 34.1742 17.2499 34.9792V42.1667H27.4082V11.5383C27.4082 7.68583 25.5107 5.75 21.6966 5.75ZM20.6041 24.4375H11.1166C10.3307 24.4375 9.67907 23.7858 9.67907 23C9.67907 22.2142 10.3307 21.5625 11.1166 21.5625H20.6041C21.3899 21.5625 22.0416 22.2142 22.0416 23C22.0416 23.7858 21.3899 24.4375 20.6041 24.4375ZM20.6041 17.25H11.1166C10.3307 17.25 9.67907 16.5983 9.67907 15.8125C9.67907 15.0267 10.3307 14.375 11.1166 14.375H20.6041C21.3899 14.375 22.0416 15.0267 22.0416 15.8125C22.0416 16.5983 21.3899 17.25 20.6041 17.25Z" fill="#0E0140"/>
<path d="M44.0832 40.7292H39.7323V34.9792C41.5532 34.3851 42.8757 32.6792 42.8757 30.6667V26.8334C42.8757 24.3226 40.8248 22.2717 38.314 22.2717C35.8032 22.2717 33.7523 24.3226 33.7523 26.8334V30.6667C33.7523 32.6601 35.0557 34.3467 36.8382 34.9601V40.7292H1.9165C1.13067 40.7292 0.479004 41.3809 0.479004 42.1667C0.479004 42.9526 1.13067 43.6042 1.9165 43.6042H38.199C38.2373 43.6042 38.2565 43.6234 38.2948 43.6234C38.3332 43.6234 38.3523 43.6042 38.3907 43.6042H44.0832C44.869 43.6042 45.5207 42.9526 45.5207 42.1667C45.5207 41.3809 44.869 40.7292 44.0832 40.7292Z" fill="#0E0140"/>
</svg>
