<svg width="20" height="20" viewBox="0 0 20 20" fill="none" xmlns="http://www.w3.org/2000/svg">
<path d="M13.9166 15.8167H6.08326C5.73326 15.8167 5.34159 15.5417 5.22492 15.2083L1.77492 5.55833C1.28326 4.17499 1.85826 3.74999 3.04159 4.59999L6.29159 6.92499C6.83326 7.29999 7.44992 7.10833 7.68326 6.49999L9.14992 2.59166C9.61659 1.34166 10.3916 1.34166 10.8583 2.59166L12.3249 6.49999C12.5583 7.10833 13.1749 7.29999 13.7083 6.92499L16.7583 4.74999C18.0583 3.81666 18.6833 4.29166 18.1499 5.79999L14.7833 15.225C14.6583 15.5417 14.2666 15.8167 13.9166 15.8167Z" stroke="#FF6B2C" stroke-width="2" stroke-linecap="round" stroke-linejoin="round"/>
<path d="M5.41675 18.3333H14.5834" stroke="#FF6B2C" stroke-width="2" stroke-linecap="round" stroke-linejoin="round"/>
<path d="M7.91675 11.6667H12.0834" stroke="#FF6B2C" stroke-width="2" stroke-linecap="round" stroke-linejoin="round"/>
</svg>
