<svg width="24" height="24" viewBox="0 0 24 24" fill="none" xmlns="http://www.w3.org/2000/svg">
<path d="M18.4999 4.11007L13.5099 2.24007C12.6799 1.93007 11.3199 1.93007 10.4899 2.24007L5.49991 4.11007C4.34991 4.54007 3.40991 5.90007 3.40991 7.12007V14.5501C3.40991 15.7301 4.18991 17.2801 5.13991 17.9901L9.43991 21.2001C10.8499 22.2601 13.1699 22.2601 14.5799 21.2001L18.8799 17.9901C19.8299 17.2801 20.6099 15.7301 20.6099 14.5501V7.12007C20.5899 5.90007 19.6499 4.54007 18.4999 4.11007ZM11.9299 7.03007C13.1099 7.03007 14.0699 7.99007 14.0699 9.17007C14.0699 10.3301 13.1599 11.2601 12.0099 11.3001H11.9899H11.9699C11.9499 11.3001 11.9299 11.3001 11.9099 11.3001C10.7099 11.2601 9.80991 10.3301 9.80991 9.17007C9.79991 7.99007 10.7599 7.03007 11.9299 7.03007ZM14.1899 16.3601C13.5799 16.7601 12.7899 16.9701 11.9999 16.9701C11.2099 16.9701 10.4099 16.7701 9.80991 16.3601C9.23991 15.9801 8.92991 15.4601 8.91991 14.8901C8.91991 14.3301 9.23991 13.7901 9.80991 13.4101C11.0199 12.6101 12.9899 12.6101 14.1999 13.4101C14.7699 13.7901 15.0899 14.3101 15.0899 14.8801C15.0799 15.4401 14.7599 15.9801 14.1899 16.3601Z" fill="#7521FF"/>
</svg>
