<svg width="100" height="100" viewBox="0 0 100 100" fill="none" xmlns="http://www.w3.org/2000/svg">
<circle cx="50" cy="50" r="50" fill="#0E0140"/>
<path d="M46.0002 47.3333C47.4729 47.3333 48.6668 46.1394 48.6668 44.6667C48.6668 43.1939 47.4729 42 46.0002 42C44.5274 42 43.3335 43.1939 43.3335 44.6667C43.3335 46.1394 44.5274 47.3333 46.0002 47.3333Z" stroke="white" stroke-width="2" stroke-linecap="round" stroke-linejoin="round"/>
<path d="M51.3332 36.6667H45.9998C39.3332 36.6667 36.6665 39.3334 36.6665 46.0001V54.0001C36.6665 60.6667 39.3332 63.3334 45.9998 63.3334H53.9998C60.6665 63.3334 63.3332 60.6667 63.3332 54.0001V47.3334" stroke="white" stroke-width="2" stroke-linecap="round" stroke-linejoin="round"/>
<path d="M55 40.6667H62.3333" stroke="white" stroke-width="2" stroke-linecap="round"/>
<path d="M58.6665 44.3333V37" stroke="white" stroke-width="2" stroke-linecap="round"/>
<path d="M37.5601 59.2666L44.1334 54.8532C45.1867 54.1466 46.7067 54.2266 47.6534 55.0399L48.0934 55.4266C49.1334 56.3199 50.8134 56.3199 51.8534 55.4266L57.4001 50.6666C58.4401 49.7732 60.1201 49.7732 61.1601 50.6666L63.3334 52.5332" stroke="white" stroke-width="2" stroke-linecap="round" stroke-linejoin="round"/>
</svg>
