<svg width="70" height="23" viewBox="0 0 70 23" fill="none" xmlns="http://www.w3.org/2000/svg">
<g clip-path="url(#clip0_19_707)">
<path d="M37.957 10.9734C42.3786 8.96785 43.0325 2.42334 36.7432 2.42334H29.4597L26.768 7.70117H28.0347L24.8152 20.3152H33.2597C39.4204 20.3678 42.1911 13.1134 37.957 10.9734ZM33.2597 15.7235H31.1486L31.9402 12.8735H33.9457C36.3208 13.3484 34.8431 15.829 33.2597 15.7235ZM34.5264 9.65386H32.732L33.2597 7.17331H35.2652C37.2031 7.64836 35.5293 9.75949 34.5264 9.65386Z" fill="#005FAF" stroke="#005FAF" stroke-width="0.151336"/>
<path d="M55.247 9.16386L58.012 4.28268L54.2706 2.33105L53.7825 2.93337C51.7641 1.86494 41.195 3.34016 40.5332 13.7661C40.9288 22.5123 50.7291 20.939 51.6904 20.384L54.3859 14.812C51.746 16.5509 46.3406 17.3856 46.1119 12.1623C46.586 7.85496 51.6715 6.24641 55.247 9.16386ZM69.0449 2.42337H60.5445L57.8425 7.54321H59.2306L52.8245 20.3152H59.0252L60.2983 17.2346H64.1045L64.1994 20.3152H69.9073L69.0449 2.42337ZM62.0227 13.0869L64.1043 8.11813L64.1992 13.0869H62.0227Z" fill="#005FAF" stroke="#005FAF" stroke-width="0.151336"/>
<path d="M15.9616 19.461L16.2918 19.3652L15.9297 18.8647L15.9616 19.461ZM10.5404 19.3758L10.4766 19.8232C10.6409 19.8071 10.8433 19.9488 10.9239 19.6314C10.9179 19.3841 10.7296 19.3705 10.5404 19.3758ZM13.1713 19.3652C13.1439 19.2434 13.0422 19.1536 12.7878 19.2375L12.873 19.6953C13.082 19.649 13.1894 19.5253 13.1713 19.3652ZM7.22816 18.9905L7.12646 19.3973C7.28991 19.4041 7.48135 19.5367 7.58985 19.2956C7.59712 19.1446 7.60332 18.9941 7.22816 18.9905ZM12.9476 20.0362L13.0222 20.5049C13.1967 20.5093 13.3559 20.4044 13.3097 20.1855C13.2652 19.9748 13.0883 20.0081 12.9476 20.0362Z" fill="#005FAF"/>
<path d="M19.8738 2.66449C14.234 -0.208618 7.49849 -0.128712 2.12486 2.53918C-0.646096 7.41719 -0.734325 14.2423 2.12486 20.2872C8.04496 23.2831 14.5927 23.0857 19.9154 20.4125C22.417 15.2803 22.8302 9.10458 19.8738 2.66449ZM10.3487 17.2302L10.0144 17.234C9.93167 16.3103 9.71087 15.5339 9.23719 14.9398C7.06506 12.2159 2.62487 14.2666 3.76579 9.63743C4.35903 7.27085 11.1257 5.87508 10.3487 17.2302ZM3.77381 12.6581C4.2481 13.6235 7.21958 13.7816 8.25108 14.5206C9.88732 15.6927 9.65245 17.2345 9.65245 17.2345H9.26654C8.50684 14.9059 6.37467 16.7496 4.66685 16.1225C3.59463 15.7411 2.81616 14.0881 3.77381 12.6581ZM9.1877 20.2492L9.34751 18.9818L9.63505 19.0031L9.50717 20.3983C9.37823 21.0129 8.46189 20.9307 8.34627 20.345L8.49534 18.8966L8.83615 18.95L8.68708 20.164C8.706 20.5658 9.109 20.5418 9.1877 20.2492ZM7.65754 20.5954L7.32975 20.5162C7.36819 20.2453 7.68948 19.6941 7.05447 19.6941L6.87771 20.4145L6.51602 20.3467L6.90026 18.6174C7.83945 18.7197 7.92162 18.9811 7.94024 19.2616C7.90316 19.4792 7.8452 19.6312 7.65769 19.6684C7.87713 19.8676 7.66027 20.285 7.65754 20.5954ZM5.57562 18.6584C5.48527 18.7783 5.30442 19.197 5.27824 19.5307C5.2504 19.8844 5.59015 19.8099 5.67474 19.7686C5.743 19.7355 5.79369 19.4514 5.79369 19.4514L5.55579 19.3721L5.63509 19.1344L6.17052 19.3128L5.91279 20.2051L5.69472 20.1454L5.71454 20.0067C5.44759 20.1283 4.95892 20.0371 4.90157 19.7291C4.84421 19.4817 5.01795 18.7315 5.29807 18.381C5.57032 18.0402 6.23363 18.3733 6.24982 18.5793C6.26586 18.7845 6.1849 19.0154 6.1849 19.0154L5.93519 18.9683C5.93519 18.9683 5.95048 18.8942 5.97227 18.7774C5.99527 18.6536 5.67247 18.5296 5.57562 18.6584ZM10.4445 20.1106L10.3807 20.8776L10.1145 20.867L10.2103 19.0457C10.8751 19.0594 11.2562 19.1515 11.2434 19.6209C11.2038 20.2623 10.6844 20.118 10.4445 20.1106ZM11.1072 17.2343H10.6619C10.6224 15.6571 10.9256 12.7722 10.0969 10.6491C9.46903 9.03966 7.88001 8.31567 7.52785 7.01554C6.97033 4.95768 7.9192 2.73108 11.1072 2.55962C13.8711 2.84337 14.7202 4.97705 14.2488 6.96363C13.4383 8.94992 12.6276 8.6645 11.6183 10.6431C10.794 12.764 11.1078 15.5427 11.1072 17.2343ZM16.0467 20.1533L15.7378 20.2598L15.6419 18.4279L16.004 18.3321L16.8987 19.8444L16.6537 20.0042L16.3554 19.5784L16.0146 19.7061L16.0467 20.1533ZM12.4432 17.2343H12.087C12.3806 13.1837 17.4708 14.0637 17.936 12.6581C18.7405 14.0516 18.4513 15.2266 17.6112 15.8289C15.5237 17.3262 13.522 14.7208 12.4432 17.2343ZM14.3321 19.2801L14.4919 20.1215C14.5913 20.3154 14.6588 20.2795 14.8113 20.26C14.9882 20.132 14.9513 20.0073 14.9179 19.8446L15.2268 19.802C15.3073 20.4116 15.0175 20.4738 14.8007 20.5156C14.336 20.5489 14.2449 20.4584 14.1191 19.8553C14.0459 19.3391 13.9194 18.794 14.3534 18.6944C15.0659 18.5856 15.0238 18.9063 15.0883 19.131L14.7794 19.1844C14.7301 18.9913 14.6591 18.9148 14.5025 18.929C14.3597 18.9945 14.3012 19.1006 14.3321 19.2801ZM13.6824 20.1533C13.6972 20.4186 13.6072 20.5947 13.4374 20.6539L12.7131 20.803L12.4255 19.0457C12.5741 19.0215 13.3028 18.7545 13.4799 19.2376C13.5672 19.5325 13.4767 19.6383 13.3733 19.77C13.5693 19.8329 13.6355 19.9855 13.6824 20.1533ZM11.8225 11.3345C13.436 6.79142 17.1281 7.59425 17.947 9.63759C19.0689 13.7377 15.4565 12.6133 13.1426 14.2946C12.268 15.0553 11.8078 15.9279 11.801 17.2507H11.4045C11.3807 14.5863 11.3376 12.6996 11.8225 11.3345Z" fill="#005FAF"/>
</g>
<defs>
<clipPath id="clip0_19_707">
<rect width="70" height="21.952" fill="white" transform="translate(0 0.523926)"/>
</clipPath>
</defs>
</svg>
