<svg width="68" height="27" viewBox="0 0 68 27" fill="none" xmlns="http://www.w3.org/2000/svg">
<g clip-path="url(#clip0_19_680)">
<path d="M54.1163 8.65309V0.403564H55.8079V7.49503C55.3395 7.72924 54.7019 8.17165 54.1163 8.65309ZM51.1757 11.1384C51.6961 10.5138 52.2296 9.88921 52.8672 9.35573V0.403564H51.1757V11.1384ZM31.5798 17.6963C31.5798 19.8953 32.4516 21.9902 34.052 23.5907C35.6395 25.1782 37.7344 26.063 39.9464 26.063C40.8833 26.063 41.8461 25.8678 42.5228 25.5295V23.8379C41.729 24.1762 40.7662 24.3714 39.9464 24.3714C36.3291 24.3714 33.2843 21.3266 33.2843 17.7093V16.187C33.2843 12.5697 36.3421 9.52488 39.9464 9.52488C41.7421 9.52488 43.4206 10.2145 44.6697 11.4636C45.9189 12.7128 46.6085 14.3913 46.6085 16.187V26.076H48.3V15.8617C48.1959 13.7017 47.2721 11.6849 45.7107 10.1755C44.1362 8.6661 42.0934 7.83334 39.9464 7.83334C37.7474 7.83334 35.6525 8.70513 34.052 10.3056C32.4646 11.893 31.5798 13.988 31.5798 16.2V17.6963ZM56.9009 13.6366C57.6686 12.8689 58.6575 12.4395 59.6334 12.4395C61.7283 12.4395 63.3548 14.079 63.3548 16.1609V17.6833C63.3548 19.7782 61.7153 21.4047 59.6334 21.4047C58.6184 21.4047 57.6426 20.8452 56.8749 19.8433C56.1982 18.9585 55.7558 17.7484 55.6908 16.6684L54.3245 18.3599C54.5978 19.6351 55.2614 20.8712 56.2112 21.73C57.1871 22.6148 58.4102 23.1093 59.6334 23.1093C62.6261 23.1093 65.0593 20.676 65.0593 17.6963V16.1739C65.0593 14.7556 64.4868 13.4024 63.4458 12.3745C62.4049 11.3335 61.0517 10.761 59.6334 10.761C58.7355 10.761 57.3173 11.0863 55.6257 12.6087C55.1703 13.0641 54.1033 14.1311 53.4527 14.8858C52.3597 16.0829 50.7853 17.8655 49.4321 19.6741V22.3155C50.9284 20.3898 51.7872 19.3098 53.2055 17.6833C54.4546 16.2 56.0161 14.4173 56.9009 13.6366ZM16.9284 10.4487V8.4449C15.393 7.62515 13.7275 7.26082 11.5155 7.26082C9.25143 7.26082 7.10448 8.09358 5.47799 9.58994C3.8385 11.0993 2.94068 13.0771 2.94068 15.185V15.7315C2.94068 20.1035 6.44087 23.6558 10.7608 23.6558C14.261 23.6558 15.7053 22.5107 16.0697 22.1464V17.0588H10.3444V18.7503H14.4822V21.3006H14.4692C13.9357 21.5088 12.8297 21.9512 10.7608 21.9512C9.12132 21.9512 7.5729 21.3136 6.42786 20.1426C5.2698 18.9715 4.64524 17.4101 4.64524 15.7185V15.172C4.64524 11.802 7.79411 8.93935 11.5285 8.93935C14.0918 8.95236 15.6272 9.38175 16.9284 10.4487ZM29.2637 12.4395C29.9013 12.4395 30.4478 12.5436 30.8902 12.7518C31.0984 12.2313 31.3196 11.7889 31.6318 11.2685C31.1764 10.9432 30.0704 10.735 29.2637 10.735C26.1799 10.735 23.8507 13.0641 23.8507 16.1609V26.0499H25.5423V16.1609C25.5423 13.9749 27.0647 12.4395 29.2637 12.4395ZM0 15.185V15.7315C0 18.6722 1.11902 21.4047 3.13586 23.4476C5.1527 25.4774 7.85916 26.5964 10.7478 26.5964C13.0769 26.5964 15.1328 26.076 16.8764 25.035C18.3077 24.1762 18.9453 23.3175 18.9973 23.2394V14.1311H10.3444V15.8226H17.3058V22.7319C16.486 23.5517 14.5473 24.9179 10.7608 24.9179C8.28856 24.9179 5.99847 23.968 4.30693 22.2505C2.6284 20.5459 1.70455 18.2298 1.70455 15.7446V15.1981C1.70455 12.8429 2.75852 10.5008 4.6062 8.77019C6.49292 7.00058 8.95216 6.02469 11.5285 6.02469C13.9357 6.02469 15.6012 6.38902 16.9414 7.20877V5.29603C15.5362 4.69748 13.8576 4.43724 11.5155 4.43724C5.2698 4.43724 0 9.35573 0 15.185ZM45.3463 26.0499V16.1609C45.3463 13.1162 42.9652 10.735 39.9204 10.735C38.5021 10.735 37.1489 11.3075 36.1079 12.3485C35.067 13.3894 34.4944 14.7426 34.4944 16.1479V17.6703C34.4944 20.611 36.9797 23.0832 39.9074 23.0832C40.7141 23.0832 41.8071 22.8881 42.4837 22.3286V20.572C41.8201 21.1054 40.8703 21.4177 39.9074 21.4177C37.8255 21.4177 36.186 19.7782 36.186 17.6963V16.1739C36.186 14.079 37.8255 12.4525 39.9074 12.4525C42.0023 12.4525 43.6288 14.092 43.6288 16.1739V26.063H45.3463V26.0499ZM29.2637 9.49886C30.4087 9.49886 31.4106 9.74608 32.3085 10.2535C32.7248 9.72006 33.1542 9.30368 33.4795 8.97838C32.5297 8.24972 30.9162 7.80732 29.2767 7.80732C26.9215 7.80732 24.7876 8.65309 23.2652 10.2015C21.7558 11.7239 20.9231 13.8448 20.9231 16.1739V26.063H22.6146V16.1739C22.6016 12.2444 25.3341 9.49886 29.2637 9.49886ZM65.5277 10.2796C63.9403 8.69212 61.8454 7.80732 59.6334 7.80732C58.0199 7.80732 56.4064 8.40586 55.5086 9.00441C53.6609 10.2275 52.1515 11.5677 49.4191 15.094V17.6313C51.7352 14.6125 53.9212 12.2444 55.5867 10.9302C56.6797 10.0584 58.2281 9.51187 59.6334 9.51187C63.2507 9.51187 66.2954 12.5697 66.2954 16.1739V17.6963C66.2954 19.479 65.5928 21.1575 64.3176 22.4196C63.0555 23.6688 61.39 24.3584 59.6334 24.3584C56.6667 24.3584 54.0513 22.3155 53.3486 19.544L52.1515 20.9883C53.0233 23.903 56.1722 26.0499 59.6334 26.0499C61.8454 26.0499 63.9273 25.1651 65.5277 23.5777C67.1152 21.9772 68 19.8953 68 17.6833V16.1609C68 13.9619 67.1152 11.867 65.5277 10.2796Z" fill="#00B45E"/>
</g>
<defs>
<clipPath id="clip0_19_680">
<rect width="68" height="26.1936" fill="white" transform="translate(0 0.40332)"/>
</clipPath>
</defs>
</svg>
