<svg width="153" height="40" viewBox="0 0 153 40" fill="none" xmlns="http://www.w3.org/2000/svg">
<path d="M22.0246 32.1115C22.0605 28.4401 21.1297 25.4545 19.9457 25.4429C18.7616 25.4314 17.7727 28.3983 17.7368 32.0696C17.7009 35.7411 18.6317 38.7267 19.8157 38.7383C20.9998 38.7499 21.9888 35.783 22.0246 32.1115Z" fill="#FF6B2C"/>
<path d="M15.1577 31.2777C17.173 28.2086 18.0043 25.1937 17.0145 24.5438C16.0247 23.8939 13.5886 25.855 11.5734 28.9241C9.55809 31.9933 8.72681 35.0081 9.71657 35.6581C10.7064 36.308 13.1424 34.3469 15.1577 31.2777Z" fill="#FF6B2C"/>
<path d="M9.82346 26.8744C13.1782 25.3822 15.5075 23.2955 15.0263 22.2136C14.5451 21.1316 11.4355 21.4643 8.08074 22.9565C4.72605 24.4487 2.39667 26.5354 2.87791 27.6173C3.35914 28.6992 6.46877 28.3666 9.82346 26.8744Z" fill="#FF6B2C"/>
<path d="M14.6236 19.1795C14.8037 18.0092 12.008 16.6076 8.37917 16.0491C4.75028 15.4905 1.66249 15.9865 1.48236 17.1568C1.30223 18.3272 4.09797 19.7286 7.72684 20.2872C11.3557 20.8457 14.4435 20.3497 14.6236 19.1795Z" fill="#FF6B2C"/>
<path d="M15.9266 16.3917C16.7107 15.5045 15.1162 12.8142 12.3651 10.3827C9.61393 7.9513 6.74803 6.6995 5.96388 7.58674C5.17974 8.47401 6.7743 11.1643 9.52545 13.5958C12.2766 16.0272 15.1425 17.279 15.9266 16.3917Z" fill="#FF6B2C"/>
<path d="M18.521 14.7623C19.6604 14.4399 19.7736 11.3146 18.7739 7.7817C17.7742 4.24883 16.0401 1.64624 14.9008 1.96865C13.7614 2.29106 13.6482 5.41637 14.6479 8.94927C15.6476 12.4821 17.3816 15.0847 18.521 14.7623Z" fill="#FF6B2C"/>
<path d="M25.5668 9.05921C26.636 5.54673 26.5845 2.41979 25.4517 2.07498C24.3189 1.73017 22.5338 4.29805 21.4646 7.81053C20.3955 11.323 20.447 14.4499 21.5798 14.7947C22.7126 15.1395 24.4977 12.5717 25.5668 9.05921Z" fill="#FF6B2C"/>
<path d="M30.6011 13.8053C33.3993 11.4281 35.0461 8.76948 34.2794 7.8671C33.5128 6.9647 30.6229 8.16028 27.8249 10.5374C25.0267 12.9146 23.3799 15.5732 24.1465 16.4756C24.9132 17.378 27.803 16.1825 30.6011 13.8053Z" fill="#FF6B2C"/>
<path d="M32.2656 20.5215C35.9048 20.0347 38.7276 18.6886 38.5706 17.5149C38.4136 16.3413 35.3361 15.7846 31.6969 16.2714C28.0578 16.7583 25.2349 18.1043 25.392 19.278C25.549 20.4516 28.6264 21.0084 32.2656 20.5215Z" fill="#FF6B2C"/>
<path d="M36.9602 27.9528C37.4627 26.8806 35.1749 24.7484 31.8503 23.1903C28.5257 21.6322 25.4232 21.2384 24.9208 22.3105C24.4183 23.3828 26.706 25.515 30.0307 27.0731C33.3552 28.6311 36.4577 29.025 36.9602 27.9528Z" fill="#FF6B2C"/>
<path d="M29.9671 35.864C30.9695 35.2338 30.1978 32.203 28.2435 29.0948C26.2892 25.9866 23.8922 23.9778 22.8898 24.6081C21.8874 25.2383 22.6591 28.269 24.6134 31.3773C26.5678 34.4855 28.9647 36.4943 29.9671 35.864Z" fill="#FF6B2C"/>
<path d="M61.1263 11.008V21.976C61.1263 24.008 60.5903 25.552 59.5183 26.608C58.4623 27.648 56.9743 28.168 55.0543 28.168C52.9903 28.168 51.3503 27.6 50.1343 26.464C48.9183 25.328 48.3103 23.672 48.3103 21.496H53.5663C53.5663 22.184 53.6783 22.672 53.9023 22.96C54.1263 23.232 54.4303 23.368 54.8143 23.368C55.1343 23.368 55.3823 23.264 55.5583 23.056C55.7343 22.848 55.8223 22.488 55.8223 21.976V11.008H61.1263ZM71.7066 10.72C73.3066 10.72 74.7706 11.096 76.0986 11.848C77.4266 12.584 78.4746 13.616 79.2426 14.944C80.0266 16.272 80.4186 17.768 80.4186 19.432C80.4186 21.096 80.0266 22.592 79.2426 23.92C78.4746 25.248 77.4186 26.288 76.0746 27.04C74.7466 27.792 73.2906 28.168 71.7066 28.168C70.1066 28.168 68.6346 27.792 67.2906 27.04C65.9626 26.288 64.9066 25.248 64.1226 23.92C63.3386 22.592 62.9466 21.096 62.9466 19.432C62.9466 17.768 63.3386 16.272 64.1226 14.944C64.9066 13.616 65.9626 12.584 67.2906 11.848C68.6346 11.096 70.1066 10.72 71.7066 10.72ZM71.7066 15.64C70.6346 15.64 69.8106 15.984 69.2346 16.672C68.6586 17.344 68.3706 18.264 68.3706 19.432C68.3706 20.584 68.6586 21.504 69.2346 22.192C69.8106 22.864 70.6346 23.2 71.7066 23.2C72.7626 23.2 73.5786 22.864 74.1546 22.192C74.7306 21.504 75.0186 20.584 75.0186 19.432C75.0186 18.264 74.7306 17.344 74.1546 16.672C73.5786 15.984 72.7626 15.64 71.7066 15.64ZM93.7166 19.288C94.7406 19.528 95.5326 20.024 96.0926 20.776C96.6686 21.512 96.9566 22.368 96.9566 23.344C96.9566 24.832 96.4606 25.984 95.4686 26.8C94.4926 27.6 93.0846 28 91.2446 28H82.3406V11.008H91.0046C92.7326 11.008 94.0926 11.384 95.0846 12.136C96.0766 12.888 96.5726 13.984 96.5726 15.424C96.5726 16.416 96.3086 17.256 95.7806 17.944C95.2686 18.616 94.5806 19.064 93.7166 19.288ZM87.6686 17.632H89.7326C90.2126 17.632 90.5646 17.536 90.7886 17.344C91.0286 17.152 91.1486 16.856 91.1486 16.456C91.1486 16.04 91.0286 15.736 90.7886 15.544C90.5646 15.336 90.2126 15.232 89.7326 15.232H87.6686V17.632ZM90.0926 23.728C90.5726 23.728 90.9246 23.64 91.1486 23.464C91.3886 23.272 91.5086 22.968 91.5086 22.552C91.5086 21.736 91.0366 21.328 90.0926 21.328H87.6686V23.728H90.0926ZM109.643 25.432H103.979L103.139 28H97.5469L103.763 11.008H109.907L116.099 28H110.483L109.643 25.432ZM108.347 21.424L106.811 16.696L105.275 21.424H108.347ZM133.605 28H128.277L122.637 19.456V28H117.309V11.008H122.637L128.277 19.696V11.008H133.605V28ZM146.405 19.264L152.693 28H146.285L141.341 20.632V28H136.013V11.008H141.341V18.184L146.333 11.008H152.693L146.405 19.264Z" fill="#0E0140"/>
</svg>
