<svg width="70" height="21" viewBox="0 0 70 21" fill="none" xmlns="http://www.w3.org/2000/svg">
<g clip-path="url(#clip0_19_652)">
<path d="M0.0821435 14.3157C0.0821435 13.3032 0.0644511 12.4556 0.00976562 11.6972H1.92456L2.01544 12.9984H2.06851C2.50197 12.3116 3.29652 11.4978 4.77785 11.4978C5.93429 11.4978 6.8366 12.1492 7.21618 13.1239H7.25317C7.56038 12.6365 7.92066 12.2746 8.33563 12.0229C8.82377 11.6787 9.3851 11.4978 10.1065 11.4978C11.5701 11.4978 13.0498 12.491 13.0498 15.3105V20.4927H10.8825V15.6338C10.8825 14.1717 10.3767 13.3032 9.31112 13.3032C8.55276 13.3032 7.99223 13.8468 7.75821 14.4789C7.69309 14.7202 7.65665 14.9682 7.64964 15.218V20.4935H5.48233V15.3981C5.48233 14.1725 4.99499 13.304 3.96481 13.304C3.13568 13.304 2.57596 13.9554 2.37491 14.5682C2.28565 14.7853 2.24865 15.0395 2.24865 15.2904V20.4935H0.0821435V14.3157ZM21.4947 18.3809C21.4947 19.1746 21.5309 19.9507 21.6202 20.4935H19.6153L19.4714 19.5188H19.4167C18.8746 20.2056 17.953 20.6914 16.8175 20.6914C15.0467 20.6914 14.0535 19.4103 14.0535 18.0729C14.0535 15.8493 16.0205 14.7315 19.2735 14.7492V14.6052C19.2735 14.0262 19.0379 13.0692 17.4842 13.0692C16.6164 13.0692 15.7141 13.341 15.1182 13.719L14.6848 12.2738C15.3354 11.8758 16.4733 11.497 17.863 11.497C20.6817 11.497 21.4955 13.2871 21.4955 15.1995L21.4947 18.3809ZM19.3266 16.1959C17.7544 16.1589 16.2562 16.5023 16.2562 17.8389C16.2562 18.7058 16.8175 19.1039 17.5212 19.1039C18.405 19.1039 19.0564 18.5241 19.255 17.8928C19.3037 17.7349 19.3281 17.5706 19.3274 17.4054L19.3266 16.1959ZM23.0291 14.3157C23.0291 13.3032 23.0106 12.4556 22.9584 11.6972H24.9069L25.0147 13.0177H25.0694C25.4481 12.3301 26.4059 11.4978 27.8688 11.4978C29.4048 11.4978 30.9931 12.491 30.9931 15.2743V20.4927H28.7719V15.5268C28.7719 14.2626 28.3014 13.3024 27.0919 13.3024C26.2081 13.3024 25.5921 13.9353 25.3581 14.6044C25.2857 14.8022 25.268 15.074 25.268 15.325V20.4919H23.0283L23.0291 14.3157ZM40.6258 8.16357V18.019C40.6258 18.9221 40.6628 19.8992 40.6982 20.4935H38.7126L38.6217 19.1039H38.5847C38.062 20.0786 36.9948 20.6922 35.7137 20.6922C33.618 20.6922 31.9573 18.9044 31.9573 16.1967C31.938 13.2517 33.7796 11.4986 35.8947 11.4986C37.1042 11.4986 37.9711 12.0044 38.3684 12.6574H38.4062V8.16438H40.6266L40.6258 8.16357ZM38.4054 15.3636C38.4054 15.1842 38.3877 14.9671 38.3507 14.7853C38.1521 13.92 37.4492 13.2147 36.4367 13.2147C35.0101 13.2147 34.2139 14.4797 34.2139 16.1227C34.2139 17.7287 35.0093 18.9036 36.419 18.9036C37.3205 18.9036 38.1159 18.2884 38.3322 17.3314C38.3869 17.1336 38.4062 16.9157 38.4062 16.6816L38.4054 15.3636ZM42.1972 20.4935V11.6972H44.4385V20.4935H42.1972ZM46.0083 14.5336C46.0083 13.3418 45.9914 12.4918 45.9375 11.698H47.87L47.9408 13.3764H48.0139C48.4474 12.1307 49.476 11.698 50.4177 11.698C50.634 11.698 50.7595 11.661 50.9396 11.698V13.6498C50.7265 13.6026 50.5089 13.5784 50.2906 13.5774C49.2226 13.5774 48.5005 14.2642 48.3026 15.2558C48.2589 15.4828 48.235 15.7131 48.2311 15.9442V20.4943H46.0083V14.5336ZM51.9706 20.4935V11.6972H54.2087V20.4935H51.9706Z" fill="#0D2B5B"/>
<path d="M68.1503 2.39417C67.0413 1.12917 65.8623 1.70176 64.9254 2.16739C64.5314 2.362 61.6869 3.97442 61.6869 3.97442C60.1284 4.61697 58.9148 3.91571 58.4388 3.32543C58.3932 3.26946 58.3521 3.21004 58.3157 3.1477L58.2047 2.9555C58.0172 2.63109 57.8087 2.31921 57.5807 2.02183C57.4423 1.84158 57.2924 1.67046 57.1319 1.50955C56.0656 0.432734 54.3615 -0.3208 51.513 1.04794C50.1644 1.82962 45.771 4.33953 45.771 4.33953C44.12 5.01907 42.8574 4.19155 42.4473 3.58438C42.4288 3.56165 42.4127 3.53714 42.399 3.5112L42.3452 3.41952L42.0669 2.96435C41.9413 2.76496 41.8066 2.57148 41.6632 2.38452C41.5234 2.20542 41.3733 2.03464 41.2137 1.87305C40.1545 0.802664 38.4593 0.0507396 35.6357 1.39375C33.9284 2.36844 29.9573 4.63869 29.9573 4.63869L29.9557 4.6403L27.0493 6.30096L28.5532 8.1474C29.1861 8.75055 30.3755 9.73971 32.2155 8.90576C32.2155 8.90576 37.294 5.96481 37.3141 5.95596C41.656 3.57313 43.7983 5.84981 44.7457 7.36733C44.7787 7.41478 44.8052 7.46625 44.835 7.51209L44.8366 7.5145C44.8486 7.533 44.8559 7.54988 44.8663 7.56758L44.9733 7.74289C45.4349 8.44254 46.1627 8.8945 47.0304 8.87359C47.5089 8.86394 47.8338 8.70793 48.3067 8.44495L53.2203 5.59488L53.2308 5.59005C57.6273 3.17826 59.8059 5.60372 60.7364 7.12125C60.8087 7.25233 60.8908 7.37779 60.9752 7.49439C61.436 8.11926 62.0713 8.52859 62.8787 8.50849C63.4119 8.49803 64.0094 8.17796 64.0987 8.11926L69.9895 4.71911C69.9911 4.72072 69.3895 3.81117 68.1503 2.39417Z" fill="#FDD213"/>
</g>
<defs>
<clipPath id="clip0_19_652">
<rect width="70" height="20.384" fill="white" transform="translate(0 0.308105)"/>
</clipPath>
</defs>
</svg>
