<svg width="70" height="23" viewBox="0 0 70 23" fill="none" xmlns="http://www.w3.org/2000/svg">
<g clip-path="url(#clip0_19_625)">
<path d="M45.5935 0.159912C40.6233 0.159912 36.1816 2.73611 36.1816 7.49583C36.1816 12.9543 44.0591 13.3313 44.0591 16.0735C44.0591 17.2281 42.7359 18.2617 40.4759 18.2617C37.2686 18.2617 34.8714 16.8175 34.8714 16.8175L33.8457 21.6206C33.8457 21.6206 36.6072 22.8405 40.2735 22.8405C45.7076 22.8405 49.9836 20.1377 49.9836 15.2967C49.9836 9.52884 42.0734 9.163 42.0734 6.61785C42.0734 5.71325 43.1595 4.72224 45.413 4.72224C47.9556 4.72224 50.0301 5.77259 50.0301 5.77259L51.0339 1.13368C51.0339 1.13368 48.7768 0.159912 45.5935 0.159912ZM0.12038 0.510052L0 1.21026C0 1.21026 2.09103 1.59292 3.9743 2.35633C6.39915 3.23164 6.57194 3.74126 6.98031 5.32401L11.4305 22.4794H17.3961L26.5865 0.510052H20.6346L14.7292 15.4471L12.3195 2.78572C12.0985 1.33667 10.9791 0.510052 9.60885 0.510052H0.12038ZM28.9798 0.510052L24.3107 22.4793H29.9863L34.639 0.509982H28.9798V0.510052ZM60.6346 0.510052C59.266 0.510052 58.5409 1.24277 58.0088 2.52317L49.6936 22.4793H55.6455L56.7971 19.1532H64.0481L64.7484 22.4793H70L65.4185 0.510052H60.6346ZM61.4086 6.44548L63.1729 14.6894H58.4464L61.4086 6.44548Z" fill="#1434CB"/>
</g>
<defs>
<clipPath id="clip0_19_625">
<rect width="70" height="22.736" fill="white" transform="translate(0 0.13208)"/>
</clipPath>
</defs>
</svg>
